<svg version="1.1" id="Layer_1" xmlns="http://www.w3.org/2000/svg" xmlns:xlink="http://www.w3.org/1999/xlink" x="0px" y="0px"
	 width="100%" viewBox="0 0 864 864" enable-background="new 0 0 864 864" xml:space="preserve">
<path fill="#000000" opacity="1.000000" stroke="none" 
	d="
M865.000000,432.531372 
	C864.625793,432.474579 864.251648,431.949097 863.628906,431.074402 
	C862.728882,433.448517 862.048645,435.242767 861.366516,437.042175 
	C858.615417,436.834412 858.546082,434.745789 858.122620,433.080597 
	C856.640686,427.253662 855.338013,421.347229 855.873779,415.309692 
	C856.791626,404.967834 853.688843,394.998047 853.243591,384.736725 
	C852.874817,376.238251 851.233093,367.483032 849.319031,359.138092 
	C846.480896,346.764984 843.901611,334.295288 840.195618,322.071716 
	C835.694458,307.225708 831.259949,292.345245 825.397217,278.024139 
	C818.696655,261.656677 810.978394,245.714127 802.361877,230.205322 
	C791.974670,211.509430 780.022583,193.857834 767.024841,176.968231 
	C752.599792,158.223907 736.520996,140.879456 719.024414,124.913498 
	C706.369751,113.365952 693.242004,102.357651 679.345703,92.343834 
	C659.688477,78.178680 638.961060,65.794708 617.114014,55.213734 
	C600.077576,46.962654 582.605713,39.803017 564.665161,33.968880 
	C551.472595,29.678759 538.028137,26.120092 524.363403,23.209415 
	C515.924194,21.411806 507.059601,21.474485 498.800415,17.865705 
	C494.386047,15.936892 488.744812,16.028172 483.776031,15.657045 
	C469.286407,14.574808 454.849548,12.533665 440.201324,13.180267 
	C426.064331,13.804304 411.734711,12.110241 397.766754,13.768310 
	C389.033722,14.804966 380.141693,15.020722 371.357666,16.758017 
	C362.097809,18.589405 352.647797,20.106659 343.243774,21.507385 
	C333.494537,22.959522 323.765381,24.998747 314.352875,28.289827 
	C305.553497,31.366514 296.581146,33.930099 287.737457,36.917355 
	C268.013702,43.579708 249.292236,52.436459 230.787354,61.783669 
	C209.442123,72.565590 189.429565,85.650932 170.706360,100.398712 
	C147.064346,119.020920 125.535370,139.909729 105.847786,162.869156 
	C71.647240,202.753418 46.516365,247.650406 28.613031,296.775024 
	C24.147818,309.027039 20.787441,321.659363 17.670340,334.366882 
	C14.305234,348.085419 11.924034,361.910889 9.697544,375.841797 
	C7.314550,390.751953 7.181485,405.851715 4.983134,420.684448 
	C2.200916,439.456726 7.193153,457.876617 5.856476,476.483063 
	C10.123337,483.718109 7.733424,492.054321 9.284016,499.822418 
	C10.469873,505.763275 11.312466,512.357117 12.019419,518.619812 
	C12.524872,523.097534 13.405205,528.078491 15.017315,532.730347 
	C17.067953,538.647583 18.180445,544.956482 19.757288,551.087585 
	C24.935049,571.219543 32.204533,590.576050 40.299435,609.683838 
	C49.266258,630.849731 60.277969,650.921204 72.830742,670.093933 
	C79.963478,680.988220 87.789261,691.449768 95.782997,701.796387 
	C110.367561,720.673706 127.133896,737.425903 144.418488,753.650574 
	C156.077515,764.594666 168.723480,774.465149 181.735977,783.883179 
	C199.734192,796.909729 218.596161,808.422668 238.436996,818.301025 
	C257.924377,828.003479 277.865051,836.635437 298.754517,843.057434 
	C309.446075,846.344299 320.203674,849.389526 330.993042,852.259705 
	C339.045410,854.401855 347.641907,854.585449 355.600952,856.963684 
	C361.862122,858.834412 368.502625,857.536926 374.486084,860.294373 
	C375.212921,860.629333 376.102997,860.643677 376.925415,860.732605 
	C397.769287,862.986877 418.684082,863.279236 439.620605,863.008362 
	C446.951935,862.913574 454.339569,863.439148 461.602142,862.702271 
	C470.582672,861.790955 479.590057,860.982300 488.517456,859.273193 
	C494.114716,858.201660 499.890228,857.851196 505.573059,856.841858 
	C514.129395,855.322205 522.593018,853.473938 531.053101,851.521301 
	C540.991882,849.227417 550.684387,846.155823 560.440613,843.223389 
	C574.544373,838.984192 588.178833,833.621033 601.704895,827.889832 
	C617.912292,821.022461 633.934753,813.786743 648.903259,804.439575 
	C651.870972,802.586304 654.982117,802.236755 656.851440,805.234741 
	C659.968933,810.234619 663.303162,809.880676 667.543701,806.531555 
	C667.686890,804.319275 666.235229,802.365417 664.978394,800.601501 
	C663.679810,798.778931 662.254639,797.308167 664.926453,795.806396 
	C667.111816,794.578125 669.105896,794.823364 670.148682,797.568970 
	C670.369141,798.149292 670.887512,798.616394 671.528992,799.490540 
	C675.415161,795.649963 681.335266,798.170593 685.297241,794.444214 
	C686.492798,793.319824 688.149170,792.665710 688.418274,790.820007 
	C688.907349,787.466492 690.114380,785.453857 694.022583,787.082153 
	C695.525146,787.708191 696.422668,786.115662 696.218506,785.150696 
	C695.370117,781.141907 698.458618,781.812378 700.486450,781.413269 
	C701.569519,781.200134 702.848145,781.836609 703.714844,780.704407 
	C709.274353,773.442078 718.349792,770.171753 723.778442,762.467957 
	C726.174622,759.067505 731.259155,757.641418 734.380493,754.081482 
	C740.978149,746.556641 749.717041,740.898804 753.822510,731.179504 
	C754.349243,729.932556 756.553528,729.476074 757.799072,728.435852 
	C761.872559,725.033752 764.187073,720.372498 766.582397,715.783997 
	C766.732910,715.495605 766.824951,714.945618 766.988342,714.928101 
	C774.182617,714.157043 774.112610,706.499939 778.283875,702.671875 
	C783.197205,698.162598 786.647095,691.835449 790.653809,686.249146 
	C795.420288,679.603760 799.475708,672.449646 803.865540,665.532593 
	C810.435791,655.179993 816.613892,644.501892 820.867493,633.079041 
	C822.834351,627.797119 825.568542,622.616089 826.420776,616.687134 
	C826.956482,612.960388 830.440308,609.663208 830.657410,605.375061 
	C830.706543,604.404297 831.242981,603.428955 830.235718,602.197510 
	C821.896912,610.252502 821.980408,623.470398 811.995667,631.569824 
	C812.606567,626.511230 815.163818,623.143005 816.851135,619.664368 
	C821.820129,609.419495 825.092041,598.506470 829.787170,588.199707 
	C835.011475,576.731384 837.635376,564.487427 841.130005,552.542175 
	C843.962891,542.859131 845.625000,532.748840 848.011841,522.917969 
	C850.422241,512.990295 850.408875,502.705475 853.459961,492.942657 
	C853.986145,491.259094 853.688049,489.302887 853.688416,487.472595 
	C853.690063,478.332184 856.430481,469.502380 856.743225,460.387268 
	C856.808838,458.475555 857.377197,456.459473 858.724487,454.960907 
	C861.112610,454.691162 861.545898,456.598785 862.500183,457.847778 
	C863.599426,459.286560 864.077942,458.135101 864.822632,457.170807 
	C865.000000,592.982727 865.000000,728.965454 865.000000,864.974121 
	C577.053894,864.974121 289.107758,864.974121 1.080821,864.974121 
	C1.080821,577.090515 1.080821,289.180969 1.080821,1.135718 
	C288.999969,1.135718 577.000000,1.135718 865.000000,1.135718 
	C865.000000,144.766693 865.000000,288.414703 865.000000,432.531372 
z"/>
<path fill="#000000" opacity="1.000000" stroke="none" 
	d="
M623.012817,246.003250 
	C620.078064,243.012650 617.175781,240.456284 614.780518,237.490463 
	C611.917786,233.945709 609.672302,234.421173 606.695007,237.399811 
	C582.673828,261.431671 558.546692,285.357574 534.473145,309.337158 
	C517.830811,325.914520 501.182861,342.486572 484.609924,359.133209 
	C468.982880,374.829742 453.452667,390.622650 437.875977,406.369354 
	C430.399323,413.927551 429.885071,413.882721 422.480347,406.462921 
	C371.949219,355.828979 321.399933,305.213226 270.852142,254.595963 
	C257.276031,241.001175 243.680618,227.425613 230.102997,213.832291 
	C226.429398,210.154419 226.525360,206.458725 230.765701,202.813431 
	C252.832809,183.843002 277.210785,168.523117 303.750397,156.569458 
	C315.047913,151.480957 326.512817,146.792374 338.359070,143.282990 
	C347.275909,140.641418 356.403229,138.585251 365.473602,136.418869 
	C375.429260,134.041016 385.609955,133.397903 395.554871,131.125778 
	C402.535034,129.531021 409.807648,130.874802 416.970917,130.220932 
	C432.097534,128.840149 447.294800,130.053055 462.376038,131.055084 
	C474.286041,131.846390 486.183380,134.233505 497.856934,136.911819 
	C531.391052,144.605698 562.906067,157.529434 592.154236,175.650864 
	C596.970886,178.635117 599.753113,178.158356 602.829285,174.119293 
	C603.329102,173.463104 604.000610,172.937836 604.592102,172.351410 
	C609.676331,167.310608 611.250793,167.268341 616.537048,172.429153 
	C623.927246,179.643936 631.268311,186.909912 638.572510,194.211823 
	C687.337097,242.960861 736.096863,291.714752 784.828186,340.497070 
	C791.406433,347.082214 797.875549,353.779236 804.284973,360.529114 
	C808.800232,365.284241 808.800293,367.067719 804.175598,371.750763 
	C784.046387,392.133698 763.933411,412.534088 743.612732,432.725098 
	C739.929626,436.384674 737.980164,439.949646 738.252930,445.329163 
	C739.244873,464.895264 736.196350,484.164948 732.014832,503.134949 
	C727.226074,524.859131 720.218933,545.976990 710.642273,566.138000 
	C707.627869,572.484314 704.748901,572.968689 699.710693,568.066284 
	C691.472351,560.050049 683.419983,551.842651 675.175903,543.832581 
	C672.357056,541.093750 671.968994,537.797180 673.268311,534.653320 
	C679.041199,520.685059 683.239563,506.201874 686.254333,491.486115 
	C688.601318,480.029663 691.173279,468.473969 690.820374,456.587921 
	C690.602844,449.260010 692.026733,441.991516 691.738037,434.627350 
	C691.625549,431.758026 691.006409,429.558289 688.962830,427.515930 
	C664.043762,402.612213 639.157043,377.675873 614.319397,352.690979 
	C611.579895,349.935181 609.512512,350.159637 606.828247,352.859741 
	C580.285583,379.558929 553.630859,406.146729 527.073975,432.831879 
	C521.846863,438.084290 521.878418,439.003754 527.063904,444.167877 
	C557.144836,474.124359 587.599731,503.712982 617.316345,534.025818 
	C664.969482,582.635010 713.229736,630.638184 761.073059,679.056274 
	C763.294312,681.304260 765.553040,683.564697 767.420471,686.095154 
	C768.626648,687.729797 770.161804,689.656616 768.948608,692.023315 
	C767.761108,694.339783 765.728394,695.250549 763.184875,695.246521 
	C759.351929,695.240356 755.518921,695.296631 751.685913,695.301697 
	C741.019836,695.315613 730.341858,695.019287 719.692627,695.446106 
	C714.205872,695.666077 710.125427,693.901917 706.403076,690.153198 
	C691.532349,675.176941 676.357239,660.496643 661.709656,645.306763 
	C646.123413,629.143433 629.606812,613.946350 613.730103,598.091003 
	C569.891663,554.311523 526.078186,510.506927 482.249786,466.717316 
	C474.710785,459.184967 467.113831,451.710327 459.606659,444.146484 
	C454.822693,439.326447 454.896576,437.381775 459.724670,432.551575 
	C508.130554,384.124817 556.536316,335.697998 604.941650,287.270660 
	C609.952332,282.257690 611.619324,282.224091 617.223206,287.851349 
	C634.494202,305.194244 651.645203,322.656494 668.905945,340.009552 
	C684.870178,356.059174 700.913208,372.030457 716.936523,388.021149 
	C717.499634,388.583099 718.223999,388.983551 719.199280,389.698242 
	C726.939209,382.919983 733.561096,375.269714 740.332825,367.780670 
	C742.412292,365.480896 740.406921,363.872589 738.860107,362.326965 
	C724.266846,347.744598 709.644409,333.191254 695.091736,318.568481 
	C671.127136,294.488312 647.208069,270.362640 623.012817,246.003250 
M497.530029,279.023987 
	C506.866821,269.768951 516.239380,260.549622 525.531128,251.249664 
	C536.815857,239.954956 547.993591,228.553116 559.305542,217.285828 
	C562.205444,214.397324 562.113037,212.323349 558.394592,210.444992 
	C555.729553,209.098755 553.173157,207.538361 550.516296,206.174850 
	C528.099609,194.670761 504.539825,186.645493 479.782074,181.733826 
	C463.068726,178.418076 446.173248,176.569366 429.319885,176.671875 
	C409.290253,176.793655 389.291290,178.983505 369.659424,183.885498 
	C346.492523,189.670151 324.335236,197.794891 303.578766,209.652603 
	C297.445099,213.156647 297.293549,213.584229 302.104004,218.424515 
	C321.464294,237.904892 340.886292,257.324036 360.230347,276.820496 
	C382.007050,298.768677 403.760590,320.740143 425.426575,342.797394 
	C428.520233,345.946899 430.681061,346.235382 433.991943,342.873932 
	C454.898895,321.647430 475.998657,300.610870 497.530029,279.023987 
z"/>
<path fill="#000000" opacity="1.000000" stroke="none" 
	d="
M598.637085,696.784424 
	C583.072876,706.579773 567.248230,715.127197 550.746094,722.365479 
	C538.387451,727.786316 525.556396,731.842163 512.582703,735.598999 
	C498.384674,739.710449 483.998566,742.788940 469.408234,744.730774 
	C449.243988,747.414612 428.961823,748.345398 408.624573,746.688599 
	C396.017395,745.661499 383.490112,744.031860 371.108093,741.455688 
	C355.292206,738.164978 339.730621,733.928894 324.519165,728.442261 
	C303.934692,721.017822 284.526611,711.222290 266.029724,699.576172 
	C263.329498,697.876099 261.161224,697.918091 258.728699,700.477112 
	C249.432144,710.257080 249.123383,709.582581 239.374878,699.824402 
	C178.885284,639.275085 118.246109,578.875305 57.657063,518.425354 
	C50.654003,511.438354 50.645111,509.700317 57.771000,502.558136 
	C77.891212,482.391907 97.987984,462.201843 118.217354,442.145599 
	C120.803215,439.581909 121.678238,436.992706 121.828156,433.394958 
	C122.505020,417.151550 123.506943,400.979248 126.380035,384.864899 
	C130.967178,359.137054 138.461136,334.442291 149.142761,310.649963 
	C152.037308,304.202637 155.527237,303.447754 160.439575,308.360352 
	C168.211349,316.132629 175.905975,323.983215 183.755600,331.675873 
	C187.457840,335.304047 188.838882,338.874054 186.389786,344.037659 
	C180.930328,355.548218 177.568726,367.882538 174.924438,380.242767 
	C172.720718,390.543640 170.819687,400.969025 170.026978,411.618958 
	C169.262177,421.893799 168.167694,432.116211 168.276794,442.445068 
	C168.307419,445.345367 169.175812,447.456482 171.205139,449.476135 
	C196.071411,474.223511 220.920898,498.988190 245.646515,523.875732 
	C248.419952,526.667419 250.233475,526.771301 252.988770,524.003174 
	C280.242432,496.622772 307.550140,469.295807 334.945618,442.057373 
	C337.647339,439.371216 337.981506,437.645660 335.118683,434.791046 
	C286.114807,385.927277 237.171387,337.002838 188.276001,288.030487 
	C156.535385,256.239899 124.899879,224.344345 93.192932,192.520096 
	C91.079956,190.399277 89.455803,188.081253 90.317078,185.025055 
	C91.211136,181.852509 94.218353,181.495117 96.828972,181.372375 
	C112.979935,180.613083 129.144836,180.858795 145.302979,181.109909 
	C149.022430,181.167694 151.607819,183.808731 154.115707,186.319046 
	C180.570160,212.799011 207.031326,239.272278 233.512344,265.725677 
	C260.184723,292.370209 286.938904,318.933044 313.552338,345.636261 
	C342.642517,374.824585 371.614136,404.131104 400.632751,433.390686 
	C404.684387,437.475983 404.583374,440.044556 399.869629,444.777252 
	C378.234589,466.499268 356.560608,488.182526 334.887970,509.867065 
	C309.336304,535.432678 283.771759,560.985352 258.211639,586.542542 
	C257.269836,587.484192 256.331024,588.429626 255.364899,589.345947 
	C250.048447,594.388550 248.863983,594.417725 243.500916,589.142334 
	C238.040695,583.771301 232.696701,578.282166 227.293076,572.853455 
	C200.733810,546.170959 174.232529,519.430359 147.571213,492.850220 
	C140.126740,485.428375 141.864487,486.210205 135.017990,492.796356 
	C130.458221,497.182800 126.420845,502.130859 121.712219,506.337982 
	C118.098427,509.566864 118.116142,511.706970 121.561737,515.121277 
	C139.545883,532.942139 157.314346,550.980713 175.156052,568.945374 
	C198.273636,592.222168 221.394379,615.495911 244.502228,638.782410 
	C249.369629,643.687378 249.446259,643.716125 254.240143,638.869873 
	C296.276245,596.374817 338.318756,553.886841 380.842560,511.877045 
	C395.292572,497.601715 409.430542,483.010468 423.712311,468.564789 
	C428.448761,463.773987 431.255554,463.732880 435.882812,468.383636 
	C482.611908,515.350159 529.356079,562.301758 576.061279,609.291992 
	C593.669861,627.008057 611.195984,644.806091 628.742371,662.583862 
	C633.691345,667.598206 633.546631,669.852783 628.280701,674.376221 
	C618.958618,682.383972 609.012268,689.561951 598.637085,696.784424 
M477.561890,696.064148 
	C484.025909,693.710999 490.868103,692.808350 497.492737,691.058044 
	C514.575439,686.544617 530.885803,680.194275 546.716858,672.535645 
	C552.257446,669.855225 558.055237,667.397766 562.548279,663.488770 
	C562.292725,661.316162 561.116028,660.498352 560.214722,659.599609 
	C518.545166,618.046204 476.854126,576.514343 435.136597,535.009094 
	C430.400116,530.296692 429.974792,530.276672 425.111572,535.096191 
	C405.376678,554.653625 385.694763,574.264648 366.019073,593.881775 
	C344.231445,615.604553 322.508911,637.392822 300.656830,659.050415 
	C297.696136,661.984741 297.869598,664.246338 301.251007,666.127686 
	C306.707581,669.163635 312.309113,671.943054 317.889008,674.752258 
	C328.734711,680.212769 340.185516,684.200562 351.639343,688.094482 
	C359.203278,690.665955 366.934021,693.055969 374.783691,694.374817 
	C380.565125,695.346130 386.460388,696.268555 392.253326,697.148315 
	C402.651825,698.727295 413.098816,699.709717 423.524506,700.464966 
	C431.857147,701.068665 440.270538,700.150269 448.710480,699.183594 
	C457.988495,698.121155 467.364014,696.821716 477.561890,696.064148 
z"/>
<path fill="#000000" opacity="1.000000" stroke="none" 
	d="
M765.958130,707.096313 
	C762.076355,712.134827 758.503174,717.016113 752.860840,719.919739 
	C755.983093,712.983643 761.565857,708.138733 766.966431,702.764954 
	C768.061218,704.873840 766.609863,705.692383 765.958130,707.096313 
z"/>
</svg>