<?xml version="1.0" standalone="no"?>
<!DOCTYPE svg PUBLIC "-//W3C//DTD SVG 20010904//EN"
 "http://www.w3.org/TR/2001/REC-SVG-20010904/DTD/svg10.dtd">
<svg version="1.0" xmlns="http://www.w3.org/2000/svg"
 width="867.000000pt" height="875.000000pt" viewBox="0 0 867.000000 875.000000"
 preserveAspectRatio="xMidYMid meet">

<g transform="translate(0.000000,875.000000) scale(0.100000,-0.100000)"
fill="#000000" stroke="none">
<path d="M4020 7435 c-232 -23 -364 -48 -570 -107 -19 -5 -47 -12 -63 -15 -15
-3 -30 -9 -33 -14 -3 -5 -16 -9 -29 -9 -13 0 -27 -4 -30 -10 -3 -5 -17 -10
-30 -10 -13 0 -26 -4 -29 -8 -3 -4 -28 -14 -55 -22 -28 -7 -51 -17 -51 -22 0
-4 -7 -8 -16 -8 -19 0 -369 -173 -388 -192 -7 -8 -32 -22 -55 -32 -22 -11 -41
-22 -41 -26 0 -4 -13 -13 -30 -20 -16 -7 -30 -16 -30 -21 0 -4 -9 -10 -19 -14
-11 -3 -34 -19 -52 -36 -17 -16 -34 -29 -39 -29 -4 0 -16 -8 -28 -17 -11 -10
-30 -25 -42 -33 -27 -18 -120 -107 -120 -114 0 -5 356 -363 1785 -1798 136
-137 224 -218 237 -218 13 0 330 312 906 890 488 490 892 890 899 890 6 0 191
-181 410 -402 219 -220 516 -520 661 -665 144 -144 262 -268 262 -273 0 -6
-28 -39 -62 -74 -35 -35 -88 -91 -118 -125 -30 -33 -61 -60 -68 -61 -6 0 -251
239 -543 531 -291 291 -536 529 -544 527 -16 -4 -764 -744 -945 -936 -14 -14
-61 -60 -105 -102 -210 -199 -464 -466 -465 -488 0 -17 315 -337 1260 -1282
l1261 -1260 284 0 285 0 0 26 c0 20 -243 268 -1245 1270 -685 685 -1245 1248
-1245 1251 0 13 902 903 915 903 8 0 200 -185 425 -410 337 -337 409 -415 406
-433 -3 -12 -8 -96 -11 -187 -3 -91 -10 -194 -16 -230 -29 -188 -60 -311 -120
-492 -27 -81 -49 -153 -49 -161 0 -7 67 -79 148 -160 120 -119 152 -145 169
-141 24 7 39 35 114 219 4 11 18 52 30 90 12 39 25 78 30 87 5 10 9 27 9 37 0
11 5 23 10 26 6 3 10 21 10 40 0 19 5 37 10 40 6 3 10 21 10 40 0 19 5 37 10
40 6 3 10 26 10 50 0 24 4 46 9 49 5 3 12 32 15 63 4 32 12 90 17 128 6 39 13
147 17 242 l7 172 30 31 c17 17 173 175 348 351 174 176 317 324 317 329 0 5
-435 446 -967 980 -744 747 -972 970 -990 970 -16 0 -41 -18 -73 -50 -56 -58
-40 -59 -160 15 -98 61 -416 215 -444 215 -8 0 -16 3 -18 8 -2 6 -190 70 -303
102 -318 92 -735 129 -1075 95z m600 -55 c47 -5 112 -12 145 -16 33 -3 64 -10
69 -15 6 -5 29 -9 52 -9 24 0 46 -4 49 -10 3 -5 24 -10 46 -10 21 0 39 -4 39
-10 0 -5 10 -10 22 -10 23 0 28 -1 188 -51 58 -19 107 -36 110 -39 3 -3 25
-12 50 -20 25 -8 47 -17 50 -20 5 -5 52 -24 108 -44 17 -6 32 -14 32 -18 0 -5
9 -8 20 -8 11 0 20 -4 20 -10 0 -5 9 -10 20 -10 11 0 20 -4 20 -10 0 -5 9 -10
20 -10 11 0 20 -4 20 -10 0 -5 9 -10 20 -10 11 0 20 -4 20 -10 0 -5 7 -10 15
-10 9 0 25 -9 37 -20 12 -11 28 -20 35 -20 7 0 13 -4 13 -10 0 -5 7 -10 15
-10 8 0 26 -9 39 -21 l24 -21 -121 -122 -122 -122 -40 23 c-22 13 -48 26 -57
30 -10 3 -18 9 -18 14 0 5 -9 9 -20 9 -11 0 -20 5 -20 10 0 6 -9 10 -20 10
-11 0 -20 5 -20 10 0 6 -9 10 -20 10 -11 0 -20 5 -20 10 0 6 -9 10 -20 10 -11
0 -20 4 -20 8 0 5 -22 15 -50 22 -27 7 -50 17 -50 22 0 4 -9 8 -20 8 -11 0
-20 5 -20 10 0 6 -13 10 -30 10 -16 0 -30 5 -30 10 0 6 -13 10 -30 10 -16 0
-30 5 -30 10 0 6 -13 10 -30 10 -16 0 -30 4 -30 9 0 5 -16 12 -35 15 -19 3
-51 9 -70 12 -19 3 -35 10 -35 15 0 5 -20 9 -44 9 -25 0 -48 5 -51 10 -3 6
-28 10 -56 10 -27 0 -49 5 -49 10 0 6 -30 10 -69 10 -39 0 -73 5 -76 10 -4 6
-118 10 -310 10 -192 0 -306 -4 -310 -10 -3 -5 -35 -10 -70 -10 -35 0 -67 -4
-70 -10 -3 -5 -28 -10 -56 -10 -27 0 -49 -4 -49 -9 0 -5 -19 -11 -42 -15 -82
-10 -118 -18 -124 -27 -3 -5 -18 -9 -34 -9 -16 0 -32 -4 -35 -10 -3 -5 -17
-10 -30 -10 -13 0 -27 -4 -30 -10 -3 -5 -15 -10 -26 -10 -10 0 -27 -4 -37 -9
-9 -5 -30 -14 -47 -21 -16 -7 -38 -16 -47 -21 -10 -5 -25 -9 -33 -9 -8 0 -15
-4 -15 -10 0 -5 -6 -10 -13 -10 -19 0 -181 -80 -185 -91 -2 -5 -12 -9 -23 -9
-10 0 -19 -4 -19 -10 0 -5 -9 -10 -20 -10 -11 0 -20 -3 -20 -8 0 -4 -13 -13
-30 -20 -24 -11 -30 -20 -30 -46 0 -28 28 -60 261 -291 264 -262 501 -500 901
-905 144 -146 225 -220 238 -220 22 0 41 19 250 241 110 117 1509 1521 1541
1546 14 11 153 -124 972 -942 527 -525 957 -959 957 -965 0 -5 -187 -197 -416
-426 l-415 -415 -271 268 c-149 147 -389 386 -534 531 -170 168 -271 262 -284
262 -13 0 -181 -161 -485 -465 -256 -256 -465 -469 -465 -475 0 -12 25 -43 68
-84 18 -17 49 -49 70 -70 20 -21 323 -326 672 -676 916 -919 1660 -1670 1660
-1675 0 -3 -110 -5 -245 -5 l-245 0 -394 393 c-415 414 -1354 1350 -1371 1367
-110 108 -273 271 -316 316 -31 33 -138 140 -238 239 -99 99 -181 185 -181
192 0 16 1465 1483 1481 1483 5 0 248 -238 538 -530 291 -291 536 -530 545
-530 8 0 42 27 73 61 32 34 93 97 136 140 42 44 77 88 77 99 0 12 -259 279
-685 706 -617 619 -686 685 -702 673 -35 -29 -448 -436 -1013 -999 -680 -676
-766 -760 -786 -760 -17 0 -305 286 -296 294 3 3 -3 6 -13 6 -10 0 -16 3 -12
6 6 7 -17 34 -28 34 -4 0 -51 45 -104 101 -53 55 -377 384 -721 730 -344 346
-659 665 -700 707 l-75 78 31 31 c17 17 42 36 54 43 13 7 34 23 47 36 13 13
28 24 33 24 5 0 20 11 34 25 14 14 29 25 34 25 4 0 17 8 28 18 25 22 74 52 97
59 9 3 17 9 17 13 0 4 14 13 30 20 17 7 30 16 30 21 0 5 9 9 19 9 11 0 21 4
23 9 3 7 196 104 288 144 94 41 270 104 358 128 17 5 49 14 70 20 116 33 292
64 456 79 61 6 112 13 115 16 8 9 421 -4 521 -16z m-64 -385 c253 -26 455 -74
664 -156 30 -11 72 -27 93 -35 56 -21 298 -144 314 -159 7 -8 13 -16 13 -19 0
-4 -78 -84 -172 -180 -95 -96 -203 -205 -240 -243 -37 -37 -76 -77 -88 -88
-11 -11 -203 -203 -426 -427 -292 -294 -412 -408 -427 -407 -15 0 -94 74 -247
230 -124 126 -419 425 -657 663 -237 238 -433 442 -435 452 -2 14 30 35 157
99 175 89 330 149 500 194 177 46 228 55 440 80 116 14 364 12 511 -4z m2622
-2795 c12 0 73 49 105 84 9 11 20 17 23 14 6 -7 -13 -281 -26 -368 -18 -118
-28 -175 -39 -217 -6 -24 -15 -60 -20 -80 -5 -21 -15 -56 -21 -78 -6 -22 -14
-52 -17 -68 -3 -15 -9 -30 -14 -33 -5 -3 -9 -14 -9 -25 0 -10 -4 -27 -9 -37
-5 -9 -19 -44 -31 -77 -19 -53 -36 -92 -72 -171 -10 -20 -19 -13 -134 102 -91
91 -124 130 -124 148 0 14 5 28 10 31 6 3 10 16 10 29 0 12 4 26 8 31 5 6 14
30 21 55 7 25 17 53 22 62 5 10 9 29 9 42 0 14 5 28 10 31 6 3 10 21 10 39 0
17 4 36 9 42 9 9 17 55 27 152 3 28 10 52 15 52 5 0 9 36 9 79 0 44 5 83 10
86 6 4 10 61 10 137 l0 132 99 -97 c54 -53 103 -97 109 -97z"/>
<path d="M1185 6922 c-266 -2 -284 -5 -285 -35 0 -5 560 -568 1245 -1252 685
-685 1245 -1250 1245 -1256 0 -14 -897 -909 -910 -909 -6 0 -195 185 -421 411
l-411 412 6 91 c3 50 9 146 12 214 4 67 10 122 14 122 5 0 11 28 13 63 5 63
16 125 37 207 6 25 14 60 17 78 3 17 9 32 14 32 5 0 9 10 9 21 0 26 42 153 52
157 5 2 8 17 8 33 0 16 5 29 10 29 6 0 10 11 10 25 0 19 -36 61 -150 175 -83
83 -154 150 -158 150 -22 -1 -72 -80 -72 -115 0 -8 -4 -15 -10 -15 -5 0 -10
-7 -10 -15 0 -8 -9 -34 -19 -58 -18 -38 -49 -130 -96 -287 -31 -101 -66 -273
-85 -420 -14 -109 -31 -370 -25 -381 4 -5 2 -17 -4 -26 -5 -10 -163 -171 -350
-358 -221 -220 -341 -347 -341 -360 0 -24 1952 -1974 1958 -1956 2 6 11 11 20
11 10 0 32 18 51 40 25 29 43 40 63 40 15 0 28 -4 28 -10 0 -5 7 -10 15 -10 9
0 25 -9 37 -20 12 -11 28 -20 35 -20 7 0 13 -4 13 -10 0 -5 9 -10 19 -10 11 0
21 -3 23 -7 4 -11 49 -36 138 -79 41 -20 83 -40 92 -45 10 -5 25 -9 33 -9 8 0
15 -4 15 -10 0 -5 9 -10 20 -10 11 0 20 -4 20 -10 0 -5 9 -10 20 -10 11 0 28
-4 38 -9 9 -5 31 -14 47 -21 17 -7 38 -16 47 -21 10 -5 27 -9 37 -9 11 0 23
-4 26 -10 3 -5 17 -10 30 -10 13 0 27 -4 30 -10 3 -5 19 -10 35 -10 16 0 32
-4 35 -10 3 -5 19 -10 35 -10 16 0 31 -4 34 -9 3 -5 23 -11 43 -15 21 -3 56
-8 78 -11 22 -4 49 -10 60 -15 11 -5 43 -11 70 -15 28 -3 88 -10 135 -17 115
-16 648 -16 765 0 87 12 129 19 245 42 30 6 74 14 98 17 23 3 42 9 42 13 0 7
12 10 103 26 20 3 37 10 37 15 0 5 14 9 30 9 17 0 30 3 30 8 0 4 36 18 80 32
44 14 80 27 80 31 0 3 23 12 50 19 28 7 50 17 50 22 0 4 9 8 20 8 11 0 20 5
20 10 0 6 9 10 20 10 11 0 20 5 20 10 0 6 9 10 20 10 11 0 20 5 20 10 0 6 9
10 20 10 11 0 20 5 20 10 0 6 9 10 20 10 11 0 20 5 20 10 0 6 9 10 20 10 11 0
20 5 20 10 0 6 9 10 20 10 11 0 20 5 20 10 0 6 6 10 13 10 7 0 23 9 35 20 12
11 28 20 37 20 8 0 15 5 15 10 0 6 6 10 13 10 7 0 22 8 33 18 10 9 31 23 47
31 15 8 27 18 27 23 0 4 7 8 15 8 8 0 15 5 15 10 0 6 6 10 13 10 7 0 19 9 27
20 8 11 20 20 27 20 7 0 13 5 13 10 0 6 6 10 13 10 7 0 19 9 27 20 8 11 20 20
27 20 7 0 13 5 13 10 0 6 5 10 11 10 13 0 89 78 89 91 0 8 -632 642 -1652
1658 -300 298 -359 352 -377 346 -20 -6 -708 -689 -1449 -1438 -183 -186 -337
-337 -342 -337 -16 0 -1340 1325 -1340 1341 0 8 56 73 125 143 l126 129 534
-537 c294 -295 541 -536 550 -536 8 0 353 338 765 752 553 555 750 758 750
775 0 17 -323 345 -1249 1272 -687 687 -1259 1255 -1272 1263 -19 10 -82 12
-294 10z m2170 -2313 c5 -5 37 -9 71 -9 35 0 66 -4 69 -10 3 -5 21 -10 40 -10
19 0 37 -4 40 -10 3 -5 30 -10 60 -10 30 0 57 -4 60 -10 3 -5 25 -10 49 -10
39 0 48 -5 124 -79 45 -44 82 -82 82 -86 0 -18 -1447 -1485 -1465 -1485 -5 0
-434 430 -852 855 -117 118 -220 215 -228 215 -21 0 -305 -286 -305 -308 0
-10 295 -314 690 -710 l689 -693 84 83 c46 46 111 107 143 136 33 30 118 111
190 180 147 142 170 162 184 162 6 0 10 5 10 11 0 5 5 7 10 4 6 -3 10 -15 10
-26 0 -10 4 -27 10 -37 5 -9 16 -48 25 -87 10 -38 23 -77 30 -85 8 -8 18 -33
23 -55 10 -45 4 -61 -43 -110 -16 -18 -73 -78 -125 -135 -202 -218 -530 -540
-550 -540 -13 0 -126 106 -328 309 -169 170 -594 596 -944 948 -351 352 -638
644 -638 648 0 11 819 825 830 825 4 0 249 -241 544 -535 l537 -535 282 279
c155 153 371 365 480 471 143 141 197 200 197 216 0 24 -26 56 -137 170 -35
35 -63 67 -63 71 0 11 103 3 115 -8z m1623 -1807 c364 -363 662 -666 662 -672
0 -17 -26 -40 -44 -40 -9 0 -16 -4 -16 -10 0 -5 -9 -10 -20 -10 -11 0 -20 -3
-20 -8 0 -4 -15 -13 -32 -21 -18 -8 -35 -17 -38 -20 -11 -14 -51 -31 -70 -31
-11 0 -20 -4 -20 -10 0 -5 -9 -10 -20 -10 -11 0 -20 -4 -20 -10 0 -5 -9 -10
-20 -10 -11 0 -20 -4 -20 -10 0 -5 -13 -10 -30 -10 -16 0 -30 -4 -30 -8 0 -5
-22 -15 -50 -22 -27 -7 -50 -17 -50 -22 0 -4 -13 -8 -29 -8 -17 0 -33 -4 -36
-10 -3 -5 -22 -10 -41 -10 -19 0 -34 -4 -34 -10 0 -5 -18 -10 -40 -10 -22 0
-40 -4 -40 -10 0 -5 -18 -10 -40 -10 -22 0 -40 -4 -40 -10 0 -5 -22 -10 -50
-10 -27 0 -50 -4 -50 -9 0 -15 -118 -22 -449 -27 -208 -3 -318 -1 -325 6 -5 5
-34 10 -62 10 -29 0 -56 5 -59 10 -3 6 -28 10 -56 10 -27 0 -49 5 -49 10 0 6
-18 10 -39 10 -22 0 -43 5 -46 10 -3 5 -22 10 -41 10 -19 0 -34 5 -34 10 0 6
-16 10 -35 10 -19 0 -35 5 -35 10 0 6 -13 10 -30 10 -16 0 -30 5 -30 10 0 6
-13 10 -30 10 -16 0 -30 5 -30 10 0 6 -11 10 -25 10 -14 0 -25 5 -25 10 0 6
-11 10 -25 10 -14 0 -25 5 -25 10 0 6 -11 10 -25 10 -14 0 -25 5 -25 10 0 6
-11 10 -25 10 -14 0 -25 5 -25 10 0 6 -9 10 -20 10 -11 0 -20 5 -20 10 0 6 -9
10 -20 10 -11 0 -20 5 -20 10 0 6 -9 10 -19 10 -11 0 -21 3 -23 8 -4 9 -57 41
-80 49 -10 3 -18 9 -18 14 0 5 -7 9 -15 9 -8 0 -15 5 -15 11 0 10 131 154 155
171 6 4 275 272 599 597 460 461 593 588 605 581 9 -4 314 -305 679 -668z"/>
</g>
</svg>
