<?xml version="1.0" encoding="utf-8"?>
<!-- Generator: Adobe Illustrator 27.0.0, SVG Export Plug-In . SVG Version: 6.00 Build 0)  -->
<svg version="1.1" id="Capa_1" xmlns="http://www.w3.org/2000/svg" xmlns:xlink="http://www.w3.org/1999/xlink" x="0px" y="0px"
	 viewBox="0 0 1662.79 653.35" style="enable-background:new 0 0 1662.79 653.35;" xml:space="preserve">
<style type="text/css">
	.st0{fill:#231F20;}
	.st1{font-family:'Poppins-Regular';}
	.st2{font-size:70.9061px;}
	.st3{letter-spacing:17;}
	.st4{fill:#674E9B;}
	.st5{fill:#5EBFED;}
	.st6{fill:url(#SVGID_1_);}
	
		.st7{clip-path:url(#SVGID_00000058582677939995379260000016888829731430929854_);fill:url(#SVGID_00000067939617971498213080000003027152572352476566_);}
	.st8{clip-path:url(#SVGID_00000058582677939995379260000016888829731430929854_);}
	.st9{fill:url(#SVGID_00000143606434780124909900000014193476514667925392_);}
	.st10{fill:url(#SVGID_00000057134949093900990840000006179892215317816705_);}
	.st11{fill:url(#SVGID_00000013891392481919360420000013450183479104623797_);}
	.st12{fill:url(#SVGID_00000067923166204086239520000017133623636557197196_);}
</style>
<text transform="matrix(1 0 0 1 653.4507 465.562)" class="st0 st1 st2 st3">Fly With Crypto</text>
<g>
	<path class="st4" d="M577.99,205.08h-30.36v32.21h-18.08v23.18h18.08v62.57c0,11.28,3.16,19.9,9.5,25.84
		c6.33,5.95,15.53,8.92,27.58,8.92c3.25,0,6.68-0.31,10.32-0.93c3.62-0.62,6.99-1.7,10.08-3.25v-25.49
		c-1.85,1.24-4.13,2.28-6.83,3.13c-2.7,0.85-5.3,1.27-7.77,1.27c-4.63,0-7.88-1.16-9.73-3.48c-1.86-2.32-2.78-5.87-2.78-10.66
		v-57.94h27.11V237.3h-27.11V205.08z"/>
	<path class="st4" d="M679.03,234.28c-7.42,0-14.76,0.89-22.01,2.66c-7.26,1.78-13.64,3.82-19.12,6.14
		c-5.49,2.32-9.31,4.17-11.47,5.56V354.1h29.43v-92.93c2.78-0.46,6.06-0.85,9.85-1.16c3.78-0.31,7.72-0.5,11.82-0.58
		c4.09-0.08,8.11,0.04,12.05,0.35c3.94,0.31,7.45,0.69,10.54,1.16v-22.25c-1.85-1.24-4.44-2.28-7.76-3.13
		C689.04,234.71,684.6,234.28,679.03,234.28z"/>
	<path class="st4" d="M803.95,246.22c-3.4-3.01-7.15-5.37-11.24-7.07c-4.1-1.7-8.38-2.93-12.86-3.71
		c-4.48-0.77-8.73-1.16-12.75-1.16c-9.58,0-18.54,1.01-26.88,3.01c-8.34,2.01-14.6,4.33-18.77,6.95v26.65
		c4.32-3.55,9.97-6.45,16.92-8.69c6.96-2.24,13.75-3.36,20.4-3.36c8.65,0,15.37,1.74,20.16,5.21c4.79,3.48,7.19,9,7.19,16.57v9.4
		c-1.48-0.85-3.09-1.67-4.87-2.45c-3.87-1.7-8.19-3.05-12.98-4.05c-4.79-1-9.97-1.51-15.53-1.51c-9.12,0-16.8,1.43-23.06,4.29
		c-6.26,2.86-11.01,7.03-14.25,12.51c-3.24,5.49-4.87,12.17-4.87,20.05c0,7.57,1.35,13.87,4.05,18.89
		c2.7,5.02,6.37,8.96,11.01,11.82c4.64,2.86,9.89,4.9,15.76,6.14c5.87,1.24,12.05,1.85,18.54,1.85c11.12,0,20.78-0.81,28.97-2.43
		c8.19-1.62,14.6-4.48,19.24-8.58c4.64-4.09,6.95-9.77,6.95-17.03v-55.39c0-6.49-1.01-12.01-3.01-16.57
		C810.05,253.02,807.34,249.23,803.95,246.22z M780.43,334.29c-3.79,1.16-9.93,1.74-18.43,1.74c-3.71,0-7.26-0.65-10.66-1.97
		c-3.4-1.31-6.18-3.24-8.34-5.79c-2.17-2.55-3.24-5.75-3.24-9.62c0-5.56,2.01-9.65,6.02-12.28c4.02-2.63,10.12-3.94,18.31-3.94
		c5.87,0,11.32,0.66,16.34,1.97c2.05,0.54,3.92,1.17,5.68,1.84v20.52C786.1,330.62,784.21,333.13,780.43,334.29z"/>
	<polygon class="st4" points="891.35,321.82 857.25,237.3 825.73,237.3 874.63,354.1 904.07,354.1 952.97,237.3 922.37,237.3 	"/>
	<path class="st4" d="M1060.15,266.15c-3.63-10.27-9.35-18.19-17.15-23.75c-7.8-5.56-18.12-8.34-30.94-8.34
		c-17.77,0-31.56,5.37-41.37,16.11c-9.81,10.74-14.72,26.3-14.72,46.7c0,12.82,2.4,23.79,7.19,32.91
		c4.79,9.12,11.51,16.03,20.16,20.74c8.65,4.71,18.77,7.07,30.36,7.07c8.8,0,16.65-0.74,23.52-2.2c6.87-1.47,13.01-3.36,18.42-5.68
		v-25.96c-2.63,1.24-5.83,2.55-9.61,3.94c-3.79,1.39-7.88,2.59-12.29,3.59c-4.4,1.01-9,1.51-13.79,1.51
		c-11.75,0-20.47-3.2-26.19-9.62c-4.48-5.02-7.17-11.8-8.14-20.28h79.76C1065.52,288.67,1063.78,276.43,1060.15,266.15z
		 M997.35,260.59c3.94-2.39,8.54-3.59,13.79-3.59c8.65,0,14.95,2.66,18.89,8c2.98,4.02,4.91,10.02,5.82,17.96H985.9
		c0.52-4.04,1.32-7.53,2.41-10.43C990.4,266.96,993.41,262.99,997.35,260.59z"/>
	<rect x="1085.53" y="193.26" class="st4" width="29.2" height="160.84"/>
	<path class="st5" d="M1258.88,331.62c-12.67,0-21.75-3.09-27.23-9.27c-5.49-6.18-8.23-15.6-8.23-28.27
		c0-12.36,3.01-21.24,9.04-26.65c6.02-5.41,14.44-8.11,25.26-8.11c5.56,0,10.97,0.74,16.22,2.2c5.25,1.47,10.5,3.36,15.76,5.68
		V241.7c-5.1-2.32-10.89-4.09-17.38-5.33c-6.49-1.24-12.83-1.85-19-1.85c-8.03,0-15.64,1.12-22.82,3.36
		c-7.19,2.24-13.49,5.87-18.89,10.89c-5.41,5.02-9.66,11.47-12.75,19.35c-3.09,7.88-4.64,17.46-4.64,28.74
		c0,10.82,1.62,20.01,4.87,27.58c3.25,7.57,7.65,13.75,13.21,18.54c5.56,4.79,11.9,8.27,19.01,10.43c7.1,2.16,14.52,3.25,22.25,3.25
		c7.1,0,13.59-0.66,19.47-1.97c5.87-1.31,11.51-3.28,16.92-5.91v-25.73c-4.17,2.17-8.96,4.14-14.37,5.91
		C1270.15,330.73,1264.59,331.62,1258.88,331.62z"/>
	<path class="st5" d="M1397.93,246.22c-3.4-3.01-7.15-5.37-11.24-7.07c-4.1-1.7-8.38-2.93-12.86-3.71
		c-4.48-0.77-8.73-1.16-12.75-1.16c-9.58,0-18.54,1.01-26.88,3.01c-8.34,2.01-14.6,4.33-18.77,6.95v26.65
		c4.32-3.55,9.97-6.45,16.92-8.69c6.96-2.24,13.75-3.36,20.4-3.36c8.65,0,15.37,1.74,20.16,5.21c4.79,3.48,7.19,9,7.19,16.57v9.4
		c-1.48-0.85-3.09-1.67-4.87-2.45c-3.87-1.7-8.19-3.05-12.98-4.05c-4.79-1-9.97-1.51-15.53-1.51c-9.12,0-16.8,1.43-23.06,4.29
		c-6.26,2.86-11.01,7.03-14.25,12.51c-3.24,5.49-4.87,12.17-4.87,20.05c0,7.57,1.35,13.87,4.05,18.89
		c2.7,5.02,6.37,8.96,11.01,11.82c4.64,2.86,9.89,4.9,15.76,6.14c5.87,1.24,12.05,1.85,18.54,1.85c11.12,0,20.78-0.81,28.97-2.43
		c8.19-1.62,14.6-4.48,19.24-8.58c4.64-4.09,6.95-9.77,6.95-17.03v-55.39c0-6.49-1.01-12.01-3.01-16.57
		C1404.03,253.02,1401.33,249.23,1397.93,246.22z M1374.41,334.29c-3.79,1.16-9.93,1.74-18.43,1.74c-3.71,0-7.27-0.65-10.66-1.97
		c-3.4-1.31-6.18-3.24-8.34-5.79c-2.17-2.55-3.24-5.75-3.24-9.62c0-5.56,2.01-9.65,6.02-12.28c4.02-2.63,10.12-3.94,18.31-3.94
		c5.87,0,11.32,0.66,16.34,1.97c2.05,0.54,3.92,1.17,5.68,1.84v20.52C1380.09,330.62,1378.19,333.13,1374.41,334.29z"/>
	<path class="st5" d="M1488.31,234.28c-7.42,0-14.76,0.89-22.01,2.66c-7.26,1.78-13.64,3.82-19.12,6.14
		c-5.48,2.32-9.31,4.17-11.47,5.56V354.1h29.43v-92.93c2.78-0.46,6.07-0.85,9.85-1.16c3.78-0.31,7.73-0.5,11.81-0.58
		c4.1-0.08,8.12,0.04,12.06,0.35c3.94,0.31,7.45,0.69,10.55,1.16v-22.25c-1.86-1.24-4.44-2.28-7.77-3.13
		C1498.32,234.71,1493.87,234.28,1488.31,234.28z"/>
	<path class="st5" d="M1591.79,331.27c-4.4,1.01-9,1.51-13.79,1.51c-11.74,0-20.47-3.2-26.19-9.62c-4.48-5.02-7.18-11.8-8.15-20.28
		h79.76c0.15-14.21-1.59-26.46-5.22-36.73c-3.63-10.27-9.35-18.19-17.15-23.75c-7.8-5.56-18.12-8.34-30.94-8.34
		c-17.77,0-31.56,5.37-41.37,16.11c-9.81,10.74-14.71,26.3-14.71,46.7c0,12.82,2.39,23.79,7.19,32.91
		c4.79,9.12,11.5,16.03,20.16,20.74c8.65,4.71,18.77,7.07,30.36,7.07c8.81,0,16.65-0.74,23.53-2.2c6.87-1.47,13.01-3.36,18.42-5.68
		v-25.96c-2.63,1.24-5.83,2.55-9.62,3.94C1600.29,329.07,1596.19,330.27,1591.79,331.27z M1555.41,260.59
		c3.94-2.39,8.54-3.59,13.79-3.59c8.65,0,14.95,2.66,18.89,8c2.97,4.02,4.91,10.02,5.82,17.96h-49.94
		c0.52-4.04,1.32-7.53,2.41-10.43C1548.46,266.96,1551.47,262.99,1555.41,260.59z"/>
	<linearGradient id="SVGID_1_" gradientUnits="userSpaceOnUse" x1="37.0304" y1="365.3729" x2="73.0515" y2="365.3729">
		<stop  offset="0" style="stop-color:#674E9B"/>
		<stop  offset="0.1421" style="stop-color:#6662A9"/>
		<stop  offset="0.5595" style="stop-color:#6197D0"/>
		<stop  offset="0.8554" style="stop-color:#5FB4E5"/>
		<stop  offset="1" style="stop-color:#5EBFED"/>
	</linearGradient>
	<circle class="st6" cx="55.04" cy="365.37" r="18.01"/>
	<polygon class="st5" points="182.07,298.79 176.37,292.71 171.09,296.9 176.67,303.06 	"/>
	<g>
		<defs>
			<path id="SVGID_00000177481233672907188180000016370955792826410887_" d="M236.53,93.84C141.11,70.21,44.7,124.01,13.43,215.29
				c-9.99,35.15-0.2,59.67,15.06,74c23.02,21.63,62.79,21.43,89.46,7.23c19.09-12.05,50.24-31.26,69.91-44.53
				c0.19-2.52,0.46-9.19,0.76-17.2c-2.75,0.92-9.54,3.02-10.16,1.75c-1.02-1.78,3.19-5.93,9.41-9.27c0.26-0.17,0.76-0.42,1.23-0.65
				c0.66-14.95,1.27-31.01,1.34-32.9c2.84-1.72,8.94-6.77,11.1-5.01c2.27,1.4,7.56,41.34,8.38,48.42
				c12.52-8.23,25.13-13.62,36.61-16.88c1.19,2.28,3.9,11.3-12.37,23.84c0.31,0.47,3.58,5.28,4.53,7.64
				c24.96-19.04,20.37-31.17,18.59-34.11l0-0.01c19.52-3.92,34.14-2,36.22,0.36c1.79,2.67,6.61,13.75-64.64,61.46l-23.48,16.21
				c-60.06,114.67-61.75,118.4-63.71,122.09c-2.64,4.48-11.4,7.31-14.69,8.5c1.78-4.52,15.84-38.27,27.95-67.69l-0.99,0.66
				c-10.09,5.42-13.67,4.81-15.29,1.9c-1.57-2.86,12.15-14.06,22.23-19.54c0.46-0.31,0.97-0.55,1.49-0.75
				c5.65-13.68,11.08-26.65,11.08-26.65c-30.37,7.82-51.18,22.49-56.33,27.41c-44.69,42.71-14.91,109.67,39.53,118.12
				c42.66,6.62,67.22,3.45,95.76-6.74c59.4-21.21,104.78-66.4,121-131.87C398.4,220.23,337.37,118.82,236.53,93.84z"/>
		</defs>
		<clipPath id="SVGID_00000095331323734580805420000007138574087980411521_">
			<use xlink:href="#SVGID_00000177481233672907188180000016370955792826410887_"  style="overflow:visible;"/>
		</clipPath>
		
			<linearGradient id="SVGID_00000100365115222420230970000000395165825599156925_" gradientUnits="userSpaceOnUse" x1="-126.5966" y1="1138.4865" x2="284.4989" y2="961.0568" gradientTransform="matrix(0.7138 0.5004 -0.5483 0.7822 725.3636 -581.1624)">
			<stop  offset="0" style="stop-color:#674E9B"/>
			<stop  offset="0.1421" style="stop-color:#6662A9"/>
			<stop  offset="0.5595" style="stop-color:#6197D0"/>
			<stop  offset="0.8554" style="stop-color:#5FB4E5"/>
			<stop  offset="1" style="stop-color:#5EBFED"/>
		</linearGradient>
		
			<path style="clip-path:url(#SVGID_00000095331323734580805420000007138574087980411521_);fill:url(#SVGID_00000100365115222420230970000000395165825599156925_);" d="
			M349.9,388.74c-62.95,89.8-185.53,112.45-273.79,50.58S-32.65,254.49,30.3,164.69s185.53-112.45,273.79-50.58
			S412.85,298.93,349.9,388.74z"/>
		<g style="clip-path:url(#SVGID_00000095331323734580805420000007138574087980411521_);">
			
				<linearGradient id="SVGID_00000161611513539495263970000013395672941252278461_" gradientUnits="userSpaceOnUse" x1="70.2085" y1="1167.282" x2="218.1137" y2="835.0618" gradientTransform="matrix(0.7572 0.5308 -0.574 0.8188 705.4412 -649.4152)">
				<stop  offset="0" style="stop-color:#674E9B"/>
				<stop  offset="0.1421" style="stop-color:#6662A9"/>
				<stop  offset="0.5595" style="stop-color:#6197D0"/>
				<stop  offset="0.8554" style="stop-color:#5FB4E5"/>
				<stop  offset="1" style="stop-color:#5EBFED"/>
			</linearGradient>
			<path style="fill:url(#SVGID_00000161611513539495263970000013395672941252278461_);" d="M328.42,374.85
				c-53.53,76.35-158.56,95.04-234.6,41.73S-0.46,258.17,53.06,181.81s158.56-95.04,234.6-41.73S381.95,298.49,328.42,374.85z"/>
			
				<linearGradient id="SVGID_00000044145269644567930900000009881208973958375870_" gradientUnits="userSpaceOnUse" x1="141.5469" y1="353.5657" x2="-209.9898" y2="402.8019" gradientTransform="matrix(0.8727 -0.0802 0.0722 0.786 227.2883 84.0401)">
				<stop  offset="0" style="stop-color:#674E9B"/>
				<stop  offset="0.1105" style="stop-color:#6662A9"/>
				<stop  offset="0.3503" style="stop-color:#6291CC"/>
				<stop  offset="0.5935" style="stop-color:#5EBFED"/>
			</linearGradient>
			<path style="fill:url(#SVGID_00000044145269644567930900000009881208973958375870_);" d="M349.09,409.08
				c-49.04,72.03-24.43,123.34-128.19,132.88s-138.65,4.28-146.62-82.49s89.22-190.96,149.61-227.9
				C323.66,170.55,425.36,297.06,349.09,409.08z"/>
			
				<linearGradient id="SVGID_00000053520792757090571270000011673230315987399581_" gradientUnits="userSpaceOnUse" x1="9.2157" y1="538.8466" x2="-230.8568" y2="227.7443" gradientTransform="matrix(0.8146 -0.0749 0.0622 0.6764 259.8723 106.2635)">
				<stop  offset="0" style="stop-color:#674E9B"/>
				<stop  offset="0.0179" style="stop-color:#67529E"/>
				<stop  offset="0.1747" style="stop-color:#6576B8"/>
				<stop  offset="0.3283" style="stop-color:#6292CD"/>
				<stop  offset="0.4753" style="stop-color:#60A6DB"/>
				<stop  offset="0.6142" style="stop-color:#5FB4E5"/>
				<stop  offset="0.7414" style="stop-color:#5FBDEB"/>
				<stop  offset="0.8465" style="stop-color:#5EBFED"/>
			</linearGradient>
			<path style="fill:url(#SVGID_00000053520792757090571270000011673230315987399581_);" d="M340.55,413.12
				c-44.21,59.64-22.58,101.75-115.21,110.26c-92.63,8.51-160.22-15.64-166.79-87.06c-3.88-42.26,28.56-81.24,72.84-112.7
				c25.88-18.39,24.35-5.45,53.42-17.86c5.25-2.24,41.93-33.14,47.1-35.15C320.75,236,409.31,320.37,340.55,413.12z"/>
			
				<linearGradient id="SVGID_00000129896824428032682550000010512759783763750040_" gradientUnits="userSpaceOnUse" x1="186.1516" y1="276.6125" x2="-394.1329" y2="369.8512" gradientTransform="matrix(0.1491 -0.4054 0.6554 0.2411 -92.8205 92.8108)">
				<stop  offset="0" style="stop-color:#674E9B"/>
				<stop  offset="0.1086" style="stop-color:#67549F"/>
				<stop  offset="0.285" style="stop-color:#6665AB"/>
				<stop  offset="0.5073" style="stop-color:#647EBE"/>
				<stop  offset="0.7639" style="stop-color:#61A0D7"/>
				<stop  offset="0.9999" style="stop-color:#5EBFED"/>
			</linearGradient>
			<path style="fill:url(#SVGID_00000129896824428032682550000010512759783763750040_);" d="M165.5,137.41
				c13.49,9.34,34.1,35.3,37.1,57.53c3.25,24.03,5.27,48.83-13.51,67.93c-36,36.61-96.56,53.68-157.75,87.72
				c-15.1,8.4-71.57-154.04,14.61-217.17C103.07,91.59,144.4,122.81,165.5,137.41z"/>
		</g>
	</g>
	<polygon class="st5" points="199.95,275 194.67,279.2 200.24,285.35 205.65,281.08 	"/>
	<polygon class="st5" points="211.38,266.75 206.1,270.94 211.68,277.1 217.08,272.83 	"/>
	<polygon class="st5" points="188.2,283.61 182.91,287.8 188.49,293.96 193.89,289.68 	"/>
</g>
</svg>
